<svg width="48" height="48" viewBox="0 0 48 48" fill="none" xmlns="http://www.w3.org/2000/svg">
<g id="&#218;&#169;&#217;&#136;&#216;&#170;&#216;&#167;&#217;&#135; &#217;&#133;&#216;&#175;&#216;&#170;">
<path id="Vector" d="M13.668 28.8353C13.056 29.6393 12.444 30.4433 11.832 31.2593C11.652 31.4993 11.4 31.6673 11.112 31.7393L4.92 33.4313C4.068 33.6713 3.372 34.0913 2.82 34.6913C2.364 35.1953 2.052 35.7713 1.872 36.4553L1.848 36.5033L1.86 36.5513C1.776 36.8513 1.752 37.1153 1.752 37.4393V39.9833C1.752 40.6793 1.884 41.2913 2.136 41.7953C2.916 43.3313 4.188 44.1233 5.916 44.1593L6.324 44.1713L6.456 44.5553C6.876 45.7433 7.704 46.7393 8.796 47.3513C9.468 47.7233 10.212 47.9393 10.98 47.9873C11.088 47.9993 11.196 47.9993 11.304 47.9993C13.428 47.9993 15.36 46.6193 16.116 44.5553L16.26 44.1593H16.68C21.492 44.1713 26.316 44.1713 31.188 44.1593H31.608L31.752 44.5553C32.448 46.5593 34.224 47.8793 36.396 47.9873C36.744 47.9993 37.092 47.9873 37.452 47.9273C38.136 47.8073 38.796 47.5553 39.372 47.1833C39.456 47.1233 39.54 47.0633 39.624 47.0033C40.332 46.4873 40.872 45.7913 41.196 45.0233C41.304 44.7713 41.424 44.5793 41.556 44.4473C41.82 44.1953 42.156 44.1353 42.588 44.1353C44.712 44.1353 46.32 42.6713 46.584 40.5113C46.656 39.9833 46.656 39.4433 46.656 38.9273V38.4833V38.0633L46.632 37.7513C46.632 37.6073 46.632 37.4513 46.632 37.3073C46.656 35.5553 45.636 33.9593 44.04 33.2393L42.516 32.5433C41.988 32.3033 41.496 32.0753 40.992 31.8473C40.86 31.7873 40.752 31.7033 40.656 31.6073C40.596 31.5353 40.548 31.4753 40.5 31.4153L37.632 26.8073C37.572 26.7113 37.512 26.6153 37.452 26.5313C37.236 26.2193 36.972 25.9313 36.636 25.6313C35.94 25.0313 35.1 24.6473 34.068 24.4553C33.492 24.3473 32.88 24.2993 32.16 24.2873C29.952 24.2633 27.924 24.2753 25.956 24.2873H25.8C24.132 24.2993 22.5 24.3113 20.796 24.2993C18.516 24.2873 16.836 24.6353 15.48 26.4233C14.892 27.2033 14.304 27.9833 13.704 28.7633M13.884 44.7113C13.284 45.5153 12.288 46.0193 11.292 46.0193C11.196 46.0193 11.1 46.0193 11.004 46.0073C10.176 45.9353 9.42 45.5273 8.868 44.8913C8.364 44.3033 8.088 43.5713 8.088 42.8153C8.088 42.4553 8.16 42.0833 8.292 41.7353C8.424 41.3633 8.616 41.0393 8.868 40.7393C9.42 40.0913 10.176 39.6953 10.992 39.6113C11.376 39.5753 11.76 39.6113 12.132 39.7073C13.212 39.9953 14.064 40.8473 14.376 41.9273C14.412 42.0353 14.424 42.1433 14.436 42.2513C14.592 43.1993 14.388 44.0393 13.884 44.7113ZM39.564 44.0273C39.168 44.9393 38.376 45.6353 37.44 45.8993C37.188 45.9713 36.936 46.0073 36.624 46.0193C35.64 46.0193 34.728 45.5753 34.116 44.8073C33.504 44.0513 33.276 43.0913 33.468 42.1433C33.72 40.9313 34.656 39.9713 35.844 39.6713C36.384 39.5393 36.924 39.5513 37.44 39.6953C38.388 39.9593 39.192 40.6673 39.576 41.5913C39.648 41.7713 39.696 41.9273 39.732 42.0833C39.792 42.3233 39.816 42.5633 39.816 42.8033C39.804 43.2233 39.732 43.6433 39.564 44.0273ZM3.708 37.5833V37.2353C3.732 36.3473 4.332 35.6273 5.256 35.3633L5.4 35.3273C6.348 35.0513 7.296 34.7873 8.28 34.5233L11.46 33.6473C11.688 33.5873 11.916 33.5273 12.144 33.4673C12.36 33.4073 12.552 33.2993 12.768 33.1193C12.912 32.9993 12.984 32.9273 13.044 32.8553C13.476 32.2913 13.908 31.7153 14.352 31.1273L14.988 30.2753C15.612 29.4593 16.248 28.6193 16.872 27.7793C17.676 26.6873 18.708 26.1713 20.112 26.1593C21.66 26.1833 23.208 26.1713 24.576 26.1713H26.544H28.5H28.764C30.144 26.1713 31.476 26.1833 32.796 26.1593C33.9 26.1353 34.824 26.4833 35.52 27.2153C35.748 27.4553 35.952 27.7313 36.132 28.0313C36.324 28.3673 36.528 28.6913 36.732 29.0153L39.06 32.7593C39.192 32.9633 39.348 33.1433 39.54 33.2753C39.648 33.3473 39.744 33.4073 39.852 33.4553L40.428 33.7193C41.052 34.0073 41.688 34.2953 42.312 34.5833L43.272 35.0273C44.244 35.4713 44.712 36.2033 44.7 37.2593C44.688 37.7873 44.7 38.3153 44.7 38.8433V39.9713C44.7 41.1953 43.692 42.2153 42.468 42.2273L41.736 42.2393L41.556 41.5553C41.304 40.5833 40.788 39.7073 40.032 39.0233C39.9 38.9033 39.756 38.7833 39.612 38.6753C38.964 38.2073 38.208 37.8833 37.428 37.7513C37.14 37.7033 36.864 37.6793 36.612 37.6793C34.332 37.6913 32.232 39.2753 31.632 41.4593C31.608 41.5433 31.596 41.6513 31.584 41.7473L31.512 42.2993L30.648 42.2393L16.428 42.2633L16.332 41.7833C16.176 41.0513 15.852 40.3553 15.36 39.7193C14.424 38.4953 13.032 37.7633 11.568 37.6913C11.388 37.6793 11.208 37.6913 10.992 37.7033C10.224 37.7513 9.492 37.9673 8.82 38.3513C8.52 38.5193 8.22 38.7353 7.92 39.0113C7.212 39.6473 6.684 40.4513 6.408 41.3393C6.372 41.4953 6.348 41.5793 6.336 41.6513L6.216 42.3233L5.592 42.2393C4.8 42.1313 4.164 41.6513 3.888 40.9433C3.792 40.7153 3.744 40.4873 3.744 40.2593C3.684 39.4553 3.684 38.5913 3.708 37.5833Z" fill="#ED1C24"/>
<g id="Group">
<path id="Vector_2" d="M13.932 16.5229C13.8 16.3909 13.656 16.2709 13.62 16.0789C13.56 15.7789 13.632 15.5269 13.908 15.3709C14.22 15.2029 14.484 15.2749 14.724 15.5149C15.792 16.5829 16.86 17.6509 17.928 18.7189C18.108 18.8989 18.252 18.9589 18.528 18.8629C19.368 18.5869 20.124 18.7909 20.712 19.4509C21.3 20.1109 21.42 20.8789 21.06 21.6829C20.7 22.4989 20.028 22.8709 19.248 22.9309C17.748 22.9309 16.728 21.5389 17.196 20.1949C17.292 19.9189 17.22 19.7749 17.04 19.5949C15.984 18.5869 14.964 17.5549 13.932 16.5229ZM19.164 21.6709C19.608 21.6589 19.992 21.2629 19.98 20.8189C19.968 20.3629 19.596 20.0149 19.128 20.0149C18.66 20.0269 18.312 20.3869 18.324 20.8549C18.336 21.3109 18.72 21.6829 19.164 21.6709Z" fill="#ED1C24" stroke="#ED1C24" stroke-width="0.3" stroke-miterlimit="10"/>
<path id="Vector_3" d="M30.54 18.0597C30.144 18.0237 29.88 17.7477 29.868 17.3757C29.856 16.9917 30.132 16.6917 30.552 16.6557C30.636 16.6437 30.732 16.6557 30.816 16.6557C34.764 16.6557 37.872 16.6557 41.82 16.6557C41.928 16.6557 42.024 16.6437 42.132 16.6677C42.516 16.7277 42.732 16.9677 42.756 17.3517C42.78 17.7117 42.492 18.0237 42.12 18.0717C42 18.0837 41.88 18.0837 41.772 18.0837C39.816 18.0837 38.712 18.0837 36.756 18.0837C34.8 18.0837 32.844 18.0837 30.888 18.0837C30.78 18.0597 30.66 18.0717 30.54 18.0597Z" fill="#2B3990" stroke="#2B3990" stroke-width="0.3" stroke-miterlimit="10"/>
<path id="Vector_4" d="M39.444 13.907C37.548 13.907 33.324 13.907 31.428 13.907C29.472 13.907 26.34 13.907 24.384 13.907C23.916 13.907 23.628 13.631 23.604 13.235C23.58 12.827 23.904 12.527 24.372 12.491C24.444 12.491 24.516 12.491 24.588 12.491C28.332 12.491 35.592 12.491 39.336 12.491C39.516 12.491 39.684 12.479 39.864 12.551C40.284 12.707 40.464 13.175 40.236 13.559C40.056 13.859 39.768 13.907 39.444 13.907Z" fill="#2B3990" stroke="#2B3990" stroke-width="0.3" stroke-miterlimit="10"/>
<path id="Vector_5" d="M33.312 20.7952C34.308 20.7952 35.304 20.7952 36.312 20.7952C36.78 20.7952 37.056 21.0712 37.068 21.4792C37.08 21.8872 36.804 22.1632 36.348 22.1992C36.264 22.2112 36.168 22.1992 36.084 22.1992C32.796 22.1992 29.508 22.1992 26.22 22.1992C26.04 22.1992 25.872 22.2112 25.692 22.1512C25.26 21.9952 25.08 21.4912 25.332 21.1072C25.512 20.8192 25.8 20.7832 26.1 20.7832C27.78 20.7832 29.448 20.7832 31.128 20.7832C31.848 20.7952 32.58 20.7952 33.312 20.7952Z" fill="#2B3990" stroke="#2B3990" stroke-width="0.3" stroke-miterlimit="10"/>
<path id="Vector_6" d="M33.492 9.76756C32.064 9.77956 28.752 9.77956 27.336 9.76756C26.832 9.76756 26.52 9.45556 26.532 9.02356C26.544 8.61556 26.844 8.36356 27.348 8.35156C27.696 8.35156 29.94 8.35156 30.3 8.35156C30.648 8.35156 31.008 8.35156 31.356 8.35156C31.704 8.35156 32.064 8.35156 32.412 8.35156C32.76 8.35156 33.12 8.35156 33.468 8.35156C33.984 8.35156 34.296 8.62756 34.284 9.05956C34.272 9.47956 33.984 9.76756 33.492 9.76756Z" fill="#2B3990" stroke="#2B3990" stroke-width="0.3" stroke-miterlimit="10"/>
<path id="Vector_7" d="M37.32 9.7548C37.068 9.7788 36.816 9.7548 36.576 9.7548C36.36 9.7548 36.132 9.7548 35.916 9.7548C35.868 9.7548 35.832 9.7548 35.784 9.7428C35.4 9.6708 35.136 9.3588 35.16 9.0108C35.184 8.6388 35.46 8.3628 35.856 8.3508C36.324 8.3388 36.792 8.3388 37.272 8.3508C37.704 8.3628 37.98 8.6268 38.004 9.0228C38.004 9.4068 37.74 9.7188 37.32 9.7548Z" fill="#2B3990" stroke="#2B3990" stroke-width="0.3" stroke-miterlimit="10"/>
<path id="Vector_8" d="M27.576 18.0587C27.336 18.0587 27.108 18.0707 26.88 18.0587C26.496 18.0227 26.232 17.7227 26.232 17.3507C26.232 16.9787 26.496 16.6787 26.88 16.6547C27.348 16.6307 27.816 16.6307 28.284 16.6547C28.668 16.6667 28.944 16.9667 28.956 17.3387C28.968 17.7227 28.68 18.0347 28.284 18.0587C28.044 18.0707 27.804 18.0587 27.576 18.0587Z" fill="#2B3990" stroke="#2B3990" stroke-width="0.3" stroke-miterlimit="10"/>
<path id="Vector_9" d="M7.68 11.9751C7.788 11.8431 8.004 11.6871 7.728 11.5191C7.536 11.3991 7.476 11.0271 7.128 11.2311C6.684 11.4831 6.144 11.4831 5.76 11.1471C5.412 10.8351 5.076 10.4991 4.764 10.1511C4.38 9.71912 4.392 9.07113 4.8 8.65112C5.58 7.83512 6.384 7.04312 7.2 6.25112C7.644 5.81912 8.34 5.81912 8.796 6.23912C9.096 6.50312 9.36 6.79112 9.636 7.07912C10.02 7.48712 10.08 8.08713 9.816 8.57913C9.624 8.95113 10.044 8.98713 10.152 9.19112C10.272 9.40712 10.404 9.28713 10.548 9.17912C11.16 8.71113 11.796 8.30312 12.468 7.94312C13.98 7.12712 15.588 6.55112 17.292 6.29912C17.568 6.26312 17.748 6.02313 17.724 5.74713C17.688 5.39913 17.7 5.03912 17.724 4.69112C17.736 4.46312 17.664 4.36712 17.424 4.39112C17.148 4.41512 16.86 4.40312 16.584 4.39112C15.828 4.37912 15.204 3.76712 15.192 3.01112C15.18 2.56712 15.192 2.12312 15.192 1.67912C15.192 0.875125 15.852 0.215125 16.656 0.203125C17.7 0.203125 18.756 0.203125 19.8 0.203125C20.616 0.203125 21.432 0.203125 22.248 0.203125C22.524 0.203125 22.788 0.203125 23.064 0.203125C23.796 0.215125 24.396 0.791125 24.432 1.52312C24.456 2.03912 24.456 2.55512 24.432 3.05912C24.396 3.80312 23.868 4.33112 23.148 4.37912C22.74 4.40312 22.176 4.19912 21.972 4.46312C21.768 4.73912 21.948 5.29112 21.888 5.69912C21.816 6.16712 22.056 6.25112 22.428 6.29912C23.064 6.38312 23.7 6.53912 24.312 6.74312C24.696 6.87512 24.876 7.22312 24.792 7.57112C24.696 7.93112 24.372 8.13513 23.988 8.08713C23.868 8.07513 23.76 8.03912 23.652 8.00312C21.648 7.43913 19.608 7.30712 17.544 7.65512C10.56 8.81912 5.424 15.1791 5.808 22.2471C5.928 24.3111 6.456 26.1711 7.284 27.8151C7.428 28.1031 7.38 28.4391 7.152 28.6551C6.828 28.9791 6.288 28.9071 6.072 28.4991C3.384 23.3151 3.852 16.9551 7.68 11.9751ZM19.896 6.05912C20.004 6.05912 20.1 6.05912 20.196 6.08312C20.436 6.13112 20.496 6.03512 20.496 5.80713C20.484 5.42312 20.484 5.05113 20.496 4.66713C20.508 4.42712 20.424 4.34312 20.196 4.37912C20.136 4.39112 20.076 4.37912 20.016 4.37912C19.116 4.37912 19.116 4.37912 19.116 5.25512C19.128 6.04712 19.128 6.04712 19.896 6.05912ZM19.812 2.96312C20.748 2.96312 21.696 2.95112 22.632 2.96312C22.92 2.96312 23.04 2.91512 23.04 2.59113C23.028 1.60712 23.04 1.60712 22.056 1.60712C20.364 1.60712 18.672 1.61913 16.992 1.59512C16.692 1.59512 16.596 1.65512 16.596 1.96712C16.608 2.95112 16.596 2.95112 17.568 2.95112C18.312 2.96312 19.068 2.96312 19.812 2.96312ZM8.868 10.5831C8.976 10.6071 9.204 10.4031 9.18 10.2831C9.12 10.0551 8.916 9.86312 8.688 9.77913C8.568 9.74312 8.448 9.95912 8.34 10.1031C8.496 10.2831 8.628 10.5231 8.868 10.5831ZM8.292 7.73912C8.136 7.65512 8.112 7.18712 7.716 7.76312C7.332 8.32712 6.828 8.80713 6.264 9.19112C6.144 9.27512 6.144 9.28713 6 9.46712C6.144 9.58713 6.288 9.70713 6.432 9.82713C6.588 9.94713 6.636 9.77913 6.708 9.70713C7.248 9.17913 7.776 8.62712 8.328 8.09913C8.508 7.93113 8.436 7.82312 8.292 7.73912Z" fill="#2B3990" stroke="#2B3990" stroke-width="0.3" stroke-miterlimit="10"/>
<path id="Vector_10" d="M8.604 15.1907C9.432 13.5947 10.704 12.2627 12.144 11.1827C15.228 8.85467 18.576 8.19467 22.056 8.78267C22.524 8.86667 22.776 9.20267 22.704 9.61067C22.632 9.99467 22.272 10.2227 21.84 10.1747C21.72 10.1627 21.612 10.1267 21.492 10.1147C20.532 9.99467 20.532 9.99467 20.52 10.9547C20.52 11.0027 20.52 11.0387 20.52 11.0867C20.496 11.5187 20.244 11.8067 19.86 11.8307C19.452 11.8547 19.14 11.5667 19.116 11.1227C19.092 10.8467 19.092 10.5587 19.116 10.2827C19.128 10.0547 19.044 10.0187 18.84 10.0427C16.344 10.2947 14.136 11.2187 12.18 12.9227C12.48 13.1987 12.744 13.4267 12.984 13.6907C13.272 14.0027 13.26 14.4107 12.984 14.6747C12.708 14.9507 12.312 14.9507 11.988 14.6747C11.784 14.4947 11.58 14.2907 11.4 14.0867C11.208 13.8707 11.124 13.9427 10.824 14.4107C9.684 16.1507 8.88 18.0827 8.436 20.1107C8.316 20.6747 8.292 20.8307 8.616 20.8067C8.904 20.7947 9.204 20.7827 9.492 20.8187C9.912 20.8667 10.164 21.1787 10.14 21.5627C10.116 21.9347 9.852 22.1867 9.444 22.2107C9.18 22.2227 8.916 22.2347 8.652 22.2107C8.376 22.1867 8.34 22.2947 8.364 22.5467C8.484 23.7227 8.676 23.9507 9.108 24.9947C9.24 25.3187 9.18 25.6907 8.928 25.9427C8.604 26.2667 8.052 26.1587 7.872 25.7387C6.348 22.2947 6.732 18.7547 8.604 15.1907Z" fill="#2B3990" stroke="#2B3990" stroke-width="0.3" stroke-miterlimit="10"/>
<path id="Vector_11" d="M39.588 22.2111C39.348 22.2111 39.12 22.2231 38.892 22.2111C38.508 22.1751 38.244 21.8751 38.244 21.5031C38.244 21.1311 38.508 20.8311 38.892 20.8071C39.36 20.7831 39.828 20.7831 40.296 20.8071C40.68 20.8191 40.956 21.1191 40.968 21.4911C40.98 21.8751 40.692 22.1871 40.296 22.2111C40.056 22.2231 39.816 22.2111 39.588 22.2111Z" fill="#2B3990" stroke="#2B3990" stroke-width="0.3" stroke-miterlimit="10"/>
</g>
</g>
</svg>
