<?xml version="1.0" encoding="utf-8"?>
<!-- Generator: Adobe Illustrator 19.2.1, SVG Export Plug-In . SVG Version: 6.00 Build 0)  -->
<svg version="1.1" id="Layer_1" xmlns="http://www.w3.org/2000/svg" xmlns:xlink="http://www.w3.org/1999/xlink" x="0px" y="0px"
	 viewBox="0 0 512 512" style="enable-background:new 0 0 512 512;" xml:space="preserve">
<style type="text/css">
	.st0{clip-path:url(#SVGID_2_);fill:#323E45;}
</style>
<g>
	<defs>
		<rect id="SVGID_1_" width="512" height="512"/>
	</defs>
	<clipPath id="SVGID_2_">
		<use xlink:href="#SVGID_1_"  style="overflow:visible;"/>
	</clipPath>
	<path class="st0" d="M504.5,136.3c-13.5,0-24.5-11-24.5-24.5c0-4.2-3.4-7.5-7.5-7.5c-4.2,0-7.5,3.4-7.5,7.5
		c0,13.5-11,24.5-24.5,24.5c-4.2,0-7.5,3.4-7.5,7.5s3.4,7.5,7.5,7.5c13.5,0,24.5,11,24.5,24.5c0,4.2,3.4,7.5,7.5,7.5
		c4.2,0,7.5-3.4,7.5-7.5c0-13.5,11-24.5,24.5-24.5c4.2,0,7.5-3.4,7.5-7.5S508.6,136.3,504.5,136.3 M472.4,152.7
		c-2.5-3.4-5.5-6.4-8.9-8.9c3.4-2.5,6.4-5.5,8.9-8.9c2.5,3.4,5.5,6.4,8.9,8.9C477.9,146.3,474.9,149.3,472.4,152.7"/>
	<path class="st0" d="M32.1,175.8c0,4.2,3.4,7.5,7.5,7.5s7.5-3.4,7.5-7.5c0-13.5,11-24.5,24.5-24.5c4.2,0,7.5-3.4,7.5-7.5
		c0-4.2-3.4-7.5-7.5-7.5c-13.5,0-24.5-11-24.5-24.5c0-4.2-3.4-7.5-7.5-7.5s-7.5,3.4-7.5,7.5c0,13.5-11,24.5-24.5,24.5
		c-4.1,0-7.5,3.4-7.5,7.5c0,4.2,3.4,7.5,7.5,7.5C21.1,151.3,32.1,162.3,32.1,175.8 M39.6,134.9c2.5,3.4,5.5,6.4,8.9,8.9
		c-3.4,2.5-6.4,5.5-8.9,8.9c-2.5-3.4-5.5-6.4-8.9-8.9C34.1,141.3,37.1,138.3,39.6,134.9"/>
	<path class="st0" d="M215.9,55.1c18,0,32.6,14.6,32.6,32.6c0,4.2,3.4,7.5,7.5,7.5c4.2,0,7.5-3.4,7.5-7.5c0-18,14.6-32.6,32.6-32.6
		c4.2,0,7.5-3.4,7.5-7.5s-3.4-7.5-7.5-7.5c-18,0-32.6-14.6-32.6-32.6c0-4.2-3.4-7.5-7.5-7.5c-4.2,0-7.5,3.4-7.5,7.5
		c0,18-14.6,32.6-32.6,32.6c-4.2,0-7.5,3.4-7.5,7.5S211.8,55.1,215.9,55.1 M256,33.2c3.7,5.8,8.6,10.7,14.4,14.4
		c-5.8,3.7-10.7,8.6-14.4,14.4c-3.7-5.8-8.7-10.7-14.4-14.4C247.3,43.9,252.3,38.9,256,33.2"/>
	<path class="st0" d="M411.5,260.3c1.4-2,1.8-4.5,1-6.8l-29.2-82.8c-2.2-6.2-8.1-10.4-14.6-10.4H141.4c-6.6,0-12.5,4.2-14.6,10.4
		l-29.2,82.8c-1.7,4.8,2,10,7.1,10h300.7C407.8,263.5,410.1,262.3,411.5,260.3 M115.2,248.5l25.7-72.8c0.1-0.2,0.3-0.3,0.5-0.3
		h227.2c0.2,0,0.4,0.1,0.5,0.3l25.7,72.8H115.2z"/>
	<path class="st0" d="M351.7,384.3c0,17.7,20.9,31.6,47.6,31.6c26.7,0,47.6-13.9,47.6-31.6c0-17.7-20.9-31.6-47.6-31.6
		C372.6,352.7,351.7,366.6,351.7,384.3 M431.8,384.3c0,7.8-13.9,16.5-32.6,16.5c-18.6,0-32.6-8.7-32.6-16.5
		c0-7.8,13.9-16.5,32.6-16.5C417.9,367.7,431.8,376.4,431.8,384.3"/>
	<path class="st0" d="M110.7,352.7c-26.7,0-47.6,13.9-47.6,31.6c0,17.7,20.9,31.6,47.6,31.6s47.6-13.9,47.6-31.6
		C158.3,366.6,137.4,352.7,110.7,352.7 M110.7,400.8c-18.6,0-32.6-8.7-32.6-16.5s13.9-16.5,32.6-16.5c18.6,0,32.6,8.7,32.6,16.5
		S129.4,400.8,110.7,400.8"/>
	<path class="st0" d="M495.5,240.5h-40.1c-3.4,0-6.5,2.3-7.3,5.7l-5.3,21.1l-36.9-104.6c-5.6-15.8-20.6-26.4-37.3-26.4H141.4
		c-16.7,0-31.7,10.6-37.3,26.4L67.2,267.3l-5.3-21.1c-0.8-3.3-3.8-5.7-7.3-5.7H14.5c-4.2,0-7.5,3.4-7.5,7.5V280
		c0,4.2,3.4,7.5,7.5,7.5H56l-25.6,35.9c-4.8,6.8-7.4,14.7-7.4,23v93.9c0,13,6.3,24.6,16,31.8c0,0.1,0,0.2,0,0.3v24
		c0,8.6,7,15.5,15.5,15.5h48.1c8.6,0,15.5-7,15.5-15.5v-16.5h273.5v16.5c0,8.6,7,15.5,15.5,15.5h48.1c8.6,0,15.5-7,15.5-15.5v-24
		c0-0.1,0-0.2,0-0.3c9.7-7.2,16-18.8,16-31.8v-93.9c0-8.3-2.5-16.3-7.4-23L454,287.6h41.5c4.2,0,7.5-3.4,7.5-7.5V248
		C503,243.8,499.6,240.5,495.5,240.5 M22,272.5v-17h26.7l4.3,17H22z M190.4,383.7h129.3v17H190.4V383.7z M191.6,368.7
		c3.2-9.9,12.5-17,23.4-17h80.2c10.9,0,20.2,7.2,23.4,17H191.6z M190.4,415.8h129.3v17H190.4V415.8z M470.7,447.9
		c-3.2,9.9-12.5,17-23.4,17H62.6c-10.9,0-20.2-7.2-23.4-17H470.7z M103.2,496.5c0,0.3-0.2,0.5-0.5,0.5H54.6c-0.3,0-0.5-0.2-0.5-0.5
		v-16.5h8.5h40.6V496.5z M455.9,479.9v16.5c0,0.3-0.2,0.5-0.5,0.5h-48.1c-0.3,0-0.5-0.2-0.5-0.5v-16.5h40.6H455.9z M471.9,346.4
		v86.4H334.7v-56.6c0-21.8-17.8-39.6-39.6-39.6h-80.2c-21.8,0-39.6,17.8-39.6,39.6v56.6H38.1v-86.4c0-5.1,1.6-10.1,4.6-14.3
		l31.9-44.6h276.7c4.2,0,7.5-3.4,7.5-7.5c0-4.2-3.4-7.5-7.5-7.5H81.3l37-104.9c3.5-9.8,12.8-16.4,23.1-16.4h227.2
		c10.4,0,19.7,6.6,23.1,16.4l37,104.9h-45.5c-4.1,0-7.5,3.4-7.5,7.5c0,4.2,3.4,7.5,7.5,7.5h52.2l31.9,44.6
		C470.3,336.4,471.9,341.3,471.9,346.4 M488,272.5h-31l4.3-17H488V272.5z"/>
	<path class="st0" d="M86.7,343.7h48.1c4.1,0,7.5-3.4,7.5-7.5c0-4.1-3.4-7.5-7.5-7.5H86.7c-4.2,0-7.5,3.4-7.5,7.5
		C79.2,340.3,82.5,343.7,86.7,343.7"/>
	<path class="st0" d="M367.7,336.2c0,4.2,3.4,7.5,7.5,7.5h48.1c4.2,0,7.5-3.4,7.5-7.5c0-4.2-3.4-7.5-7.5-7.5h-48.1
		C371.1,328.6,367.7,332,367.7,336.2"/>
</g>
</svg>
