<?xml version="1.0" encoding="utf-8"?>
<!-- Generator: Adobe Illustrator 19.2.1, SVG Export Plug-In . SVG Version: 6.00 Build 0)  -->
<svg version="1.1" id="Layer_1" xmlns="http://www.w3.org/2000/svg" xmlns:xlink="http://www.w3.org/1999/xlink" x="0px" y="0px"
	 viewBox="0 0 496.6 496.1" style="enable-background:new 0 0 496.6 496.1;" xml:space="preserve">
<style type="text/css">
	.st0{clip-path:url(#SVGID_2_);fill:#323E45;}
</style>
<g>
	<defs>
		<rect id="SVGID_1_" width="496.6" height="496.1"/>
	</defs>
	<clipPath id="SVGID_2_">
		<use xlink:href="#SVGID_1_"  style="overflow:visible;"/>
	</clipPath>
	<path class="st0" d="M496.5,120.1v-48c0-2.1-0.8-4.2-2.3-5.7l-64-64c-3.1-3.1-8.2-3.1-11.3,0c-1.5,1.5-2.3,3.5-2.3,5.7v52.7
		l-4.1,4.1c-22.2-20.1-47.9-35.8-75.9-46.3V8.1c0-4.4-3.6-8-8-8c-2.1,0-4.2,0.8-5.7,2.3l-7.1,7.1C184.1-27.9,46.9,48.6,9.5,180.3
		c-37.4,131.8,39.1,268.9,170.8,306.3c45.9,13,94.6,12.6,140.2-1.4v2.8h16v-304c0-2.1-0.8-4.2-2.3-5.7l-30.6-30.6l0.1-0.2l-0.5-0.3
		l-30.6-30.6V75.4l48-48v36.7c0,2.1,0.8,4.2,2.3,5.7l48,48c3.1,3.1,8.2,3.1,11.3,0l48-48c1.5-1.5,2.3-3.5,2.3-5.7V27.4l48,48v41.4
		l-61.7,61.7c-1.5,1.5-2.3,3.5-2.3,5.7v304h16v-69c66.3-75.1,82.6-182,41.8-273.4l19.9-19.9C495.7,124.2,496.5,122.2,496.5,120.1
		 M182.1,110.8l41.3,96.4c-6.4,4-11.8,9.4-15.8,15.8l-96-41.2C126.4,150.9,151.3,125.8,182.1,110.8 M280.5,248.1
		c0,17.7-14.3,32-32,32s-32-14.3-32-32s14.3-32,32-32S280.5,230.4,280.5,248.1 M320.5,267.1L296,254.9c0.7-4.5,0.7-9.1,0-13.6
		l24.5-12.2V267.1z M96.5,248.1c0-17.5,3.1-34.9,9-51.4l96.1,41.2c-1.5,6.7-1.5,13.7,0,20.5l-96.1,41.2
		C99.6,283,96.6,265.6,96.5,248.1 M207.7,273.1c4,6.4,9.4,11.8,15.8,15.8l-41.3,96.4c-30.9-15-55.7-40.1-70.5-71.1L207.7,273.1z
		 M238.3,295c6.7,1.5,13.7,1.5,20.5,0l40.7,94.9c-32.8,13.1-69.3,13.7-102.5,1.7L238.3,295z M314,383.2l-40.4-94.3
		c7.4-4.5,13.4-11,17.4-18.7l29.5,14.7v94.5C318.4,380.8,316.2,382,314,383.2 M320.5,187.4v23.7l-29.5,14.7c-4-7.6-9.9-14-17.2-18.5
		l22.2-44.4L320.5,187.4z M284.1,151L259,201.3c-6.8-1.6-13.9-1.6-20.7-0.1l-41.4-96.6c15.7-5.6,32.2-8.5,48.8-8.5
		c3.6,0,7.2,0.3,10.8,0.5v23.5c0,2.1,0.8,4.2,2.3,5.7L284.1,151z M258.9,66.4c-1.5,1.5-2.3,3.5-2.3,5.7v8.5
		c-3.6-0.2-7.2-0.5-10.8-0.5c-92.8,0-168,75.2-168,168s75.2,168,168,168c26,0,51.7-6.3,74.8-18.3v70.7
		C198.8,508.3,67.8,441.8,28,320.1C-11.8,198.3,54.7,67.3,176.5,27.6c40.8-13.3,84.6-15.1,126.3-5L258.9,66.4z M376.5,100.8l-40-40
		V35.7c23.7,9.7,45.5,23.4,64.6,40.5L376.5,100.8z M480.5,250c0.1,51.9-16.7,102.5-48,144V187.4l29.6-29.6
		C474.4,187,480.6,218.3,480.5,250"/>
	<path class="st0" d="M376.5,200.1c-7.4-1.1-13.8-5.7-17.3-12.3l-13.5,8.6c6.1,11.5,17.8,18.9,30.7,19.7c13-0.8,24.6-8.2,30.7-19.7
		l-13.5-8.6C390.4,194.4,383.9,199,376.5,200.1"/>
	<rect x="384.5" y="232.1" class="st0" width="16" height="256"/>
	
		<rect x="396.9" y="116.1" transform="matrix(0.7071 -0.7071 0.7071 0.7071 40.1033 345.0331)" class="st0" width="79.2" height="16"/>
	<path class="st0" d="M32.5,248.1h16c0.1-110.4,89.6-199.9,200-200v-16C129.3,32.2,32.7,128.8,32.5,248.1"/>
</g>
</svg>
