<?xml version="1.0" encoding="utf-8"?>
<!-- Generator: Adobe Illustrator 19.2.1, SVG Export Plug-In . SVG Version: 6.00 Build 0)  -->
<svg version="1.1" id="Layer_1" xmlns="http://www.w3.org/2000/svg" xmlns:xlink="http://www.w3.org/1999/xlink" x="0px" y="0px"
	 viewBox="0 0 409.9 410.9" style="enable-background:new 0 0 409.9 410.9;" xml:space="preserve">
<style type="text/css">
	.st0{clip-path:url(#SVGID_2_);fill:#323E45;}
</style>
<g>
	<defs>
		<rect id="SVGID_1_" width="409.9" height="410.9"/>
	</defs>
	<clipPath id="SVGID_2_">
		<use xlink:href="#SVGID_1_"  style="overflow:visible;"/>
	</clipPath>
	<path class="st0" d="M359.7,97.7c0.3,0,0.6,0,0.9,0c2,0,4-0.8,5.4-2.3l41.4-41.4c2.1-2.1,2.8-5.2,1.8-8c-1-2.8-3.6-4.8-6.5-5
		l-31-2.8l-2.8-31c-0.3-3-2.2-5.5-5-6.5c-2.8-1-5.9-0.3-8,1.8L314.4,44c-1.6,1.6-2.5,4-2.2,6.3l3.7,33l-7.8,7.8
		c-28.6-26.2-66.2-42.8-107.5-44.6V31.8c0-4.2-3.4-7.7-7.7-7.7c-4.2,0-7.7,3.4-7.7,7.7v14.6c-88.1,3.9-159.1,74.9-163,163H7.7
		c-4.2,0-7.7,3.4-7.7,7.7c0,4.2,3.4,7.7,7.7,7.7h14.6c3.9,88.1,74.9,159.1,163,163v14.6c0,4.2,3.4,7.7,7.7,7.7
		c4.2,0,7.7-3.4,7.7-7.7v-14.6c88.1-3.9,159.1-74.9,163-163h14.6c4.2,0,7.7-3.4,7.7-7.7c0-4.2-3.4-7.7-7.7-7.7h-14.6
		c-1.8-41.3-18.4-78.9-44.6-107.5l7.8-7.8L359.7,97.7z M355,25l1.9,21c0.3,3.7,3.3,6.6,7,6.9l21,1.9l-27.2,27.2l-26.9-3l-3-26.9
		L355,25z M348.2,209.3h-10.8c-4.2,0-7.7,3.4-7.7,7.7c0,4.2,3.4,7.7,7.7,7.7h10.8c-3.9,79.6-68,143.7-147.6,147.6v-10.8
		c0-4.2-3.4-7.7-7.7-7.7c-4.2,0-7.7,3.4-7.7,7.7v10.8c-79.6-3.9-143.7-68-147.6-147.6h10.8c4.2,0,7.7-3.4,7.7-7.7
		c0-4.2-3.4-7.7-7.7-7.7H37.6c3.9-79.6,68-143.7,147.6-147.6v10.8c0,4.2,3.4,7.7,7.7,7.7c4.2,0,7.7-3.4,7.7-7.7V61.7
		c37.1,1.8,70.8,16.7,96.6,40.1l-23.1,23.1c-21.7-19.1-50.1-30.8-81.2-30.8c-67.7,0-122.8,55.1-122.8,122.8
		c0,67.7,55.1,122.8,122.8,122.8c67.7,0,122.8-55.1,122.8-122.8c0-31.1-11.6-59.6-30.8-81.2l23.1-23.1
		C331.5,138.5,346.4,172.2,348.2,209.3 M187.5,222.4c1.5,1.5,3.5,2.3,5.4,2.3c2,0,3.9-0.8,5.4-2.3l41.7-41.7
		c7.8,10.1,12.4,22.6,12.4,36.3c0,32.8-26.7,59.5-59.5,59.5c-32.8,0-59.5-26.7-59.5-59.5c0-32.8,26.7-59.5,59.5-59.5
		c13.6,0,26.2,4.6,36.3,12.4l-41.7,41.7C184.5,214.6,184.5,219.4,187.5,222.4 M192.9,142.2c-41.3,0-74.9,33.6-74.9,74.9
		c0,41.3,33.6,74.9,74.9,74.9c41.3,0,74.9-33.6,74.9-74.9c0-17.9-6.3-34.3-16.8-47.2l23.2-23.2c16.4,18.9,26.3,43.5,26.3,70.3
		c0,59.3-48.2,107.5-107.5,107.5c-59.3,0-107.5-48.2-107.5-107.5c0-59.3,48.2-107.5,107.5-107.5c26.9,0,51.5,9.9,70.3,26.3
		L240.1,159C227.2,148.5,210.8,142.2,192.9,142.2"/>
</g>
</svg>
