<?xml version="1.0" encoding="utf-8"?>
<!-- Generator: Adobe Illustrator 19.2.1, SVG Export Plug-In . SVG Version: 6.00 Build 0)  -->
<svg version="1.1" id="Layer_1" xmlns="http://www.w3.org/2000/svg" xmlns:xlink="http://www.w3.org/1999/xlink" x="0px" y="0px"
	 viewBox="0 0 448 448" style="enable-background:new 0 0 448 448;" xml:space="preserve">
<style type="text/css">
	.st0{clip-path:url(#SVGID_2_);fill:#323E45;}
</style>
<g>
	<defs>
		<rect id="SVGID_1_" width="448" height="448"/>
	</defs>
	<clipPath id="SVGID_2_">
		<use xlink:href="#SVGID_1_"  style="overflow:visible;"/>
	</clipPath>
	<path class="st0" d="M416,96h-64V32c0-17.7-14.3-32-32-32H32C14.3,0,0,14.3,0,32v384c0,2.1,0.8,4.2,2.3,5.7l24,24
		c3.1,3.1,8.2,3.1,11.3,0L56,427.3l18.3,18.3c3.1,3.1,8.2,3.1,11.3,0l18.3-18.3l18.3,18.3c3.1,3.1,8.2,3.1,11.3,0l18.3-18.3
		l18.3,18.3c3.1,3.1,8.2,3.1,11.3,0l18.3-18.3l18.3,18.3c3.1,3.1,8.2,3.1,11.3,0l18.3-18.3l18.3,18.3c3.1,3.1,8.2,3.1,11.3,0l24-24
		c1.5-1.5,2.3-3.5,2.3-5.7v-64h64c17.7,0,32-14.3,32-32v-72h40c4.4,0,8-3.6,8-8V128C448,110.3,433.7,96,416,96 M288,32v380.7l-16,16
		l-18.3-18.3c-3.1-3.1-8.2-3.1-11.3,0L224,428.7l-18.3-18.3c-3.1-3.1-8.2-3.1-11.3,0L176,428.7l-18.3-18.3c-3.1-3.1-8.2-3.1-11.3,0
		L128,428.7l-18.3-18.3c-3.1-3.1-8.2-3.1-11.3,0L80,428.7l-18.3-18.3c-3.1-3.1-8.2-3.1-11.3,0L32,428.7l-16-16V32
		c0-8.8,7.2-16,16-16h260.3C289.5,20.9,288,26.4,288,32 M304,32c0-8.8,7.2-16,16-16c8.8,0,16,7.2,16,16v288c0,5.6,1.6,11.2,4.4,16
		H304V32z M384,320c0,8.8-7.2,16-16,16c-8.8,0-16-7.2-16-16V112h36.4c-2.9,4.8-4.4,10.4-4.4,16V320z M432,232h-32V128
		c0-8.8,7.2-16,16-16c8.8,0,16,7.2,16,16V232z"/>
	<rect x="72" y="288" class="st0" width="160" height="16"/>
	<rect x="72" y="256" class="st0" width="192" height="16"/>
	<rect x="40" y="256" class="st0" width="16" height="16"/>
	<rect x="72" y="216" class="st0" width="160" height="16"/>
	<rect x="72" y="184" class="st0" width="192" height="16"/>
	<rect x="40" y="184" class="st0" width="16" height="16"/>
	<rect x="72" y="360" class="st0" width="160" height="16"/>
	<rect x="72" y="328" class="st0" width="192" height="16"/>
	<rect x="40" y="328" class="st0" width="16" height="16"/>
	<path class="st0" d="M80,142.8v9.2h16v-9.2c12-3.7,18.7-16.5,15-28.5c-1.8-5.9-6-10.8-11.6-13.6l-15.6-7.8
		c-3.4-1.7-4.7-5.8-3.1-9.2c1.2-2.3,3.5-3.8,6.1-3.8h2.3c3.8,0,6.8,3.1,6.8,6.8V88h16v-1.2c0-9.9-6.5-18.7-16-21.7V56H80v9.2
		c-12,3.7-18.7,16.5-15,28.5c1.8,5.9,6,10.8,11.6,13.6l15.6,7.8c3.4,1.7,4.7,5.8,3.1,9.2c-1.2,2.3-3.5,3.8-6.1,3.8h-2.3
		c-3.8,0-6.8-3.1-6.8-6.8V120H64v1.2C64,131.1,70.5,139.9,80,142.8"/>
	<rect x="240" y="56" class="st0" width="16" height="16"/>
	<rect x="152" y="136" class="st0" width="104" height="16"/>
	<rect x="152" y="104" class="st0" width="104" height="16"/>
	<rect x="208" y="56" class="st0" width="16" height="16"/>
</g>
</svg>
